<svg xmlns="http://www.w3.org/2000/svg" viewBox="0 0 256 257">
  <defs>
    <linearGradient id="gradientPrimary" x1="0%" y1="0%" x2="100%" y2="100%">
      <stop offset="0%" stop-color="#41D1FF"/>
      <stop offset="100%" stop-color="#BD34FE"/>
    </linearGradient>
    <linearGradient id="gradientSecondary" x1="0%" y1="0%" x2="100%" y2="100%">
      <stop offset="0%" stop-color="#FFEA83"/>
      <stop offset="8.333%" stop-color="#FFDD35"/>
      <stop offset="100%" stop-color="#FFA800"/>
    </linearGradient>
  </defs>
  <path d="M180 60 
           C 180 40, 160 20, 120 20
           C 80 20, 40 40, 40 128
           C 40 216, 80 236, 120 236
           C 160 236, 180 216, 180 196"
        stroke="url(#gradientPrimary)"
        fill="none"
        stroke-width="40"
        stroke-linecap="round"/>
  <path d="M170 80
           C 170 60, 150 40, 120 40
           C 90 40, 60 60, 60 128
           C 60 196, 90 216, 120 216
           C 150 216, 170 196, 170 176"
        stroke="url(#gradientSecondary)"
        fill="none"
        stroke-width="8"
        stroke-linecap="round"/>
</svg>